<?xml version="1.0" encoding="utf-8"?>
<!-- Generator: Adobe Illustrator 16.2.1, SVG Export Plug-In . SVG Version: 6.00 Build 0)  -->
<!DOCTYPE svg PUBLIC "-//W3C//DTD SVG 1.1//EN" "http://www.w3.org/Graphics/SVG/1.1/DTD/svg11.dtd">
<svg version="1.1" id="Capa_1" xmlns="http://www.w3.org/2000/svg" xmlns:xlink="http://www.w3.org/1999/xlink" x="0px" y="0px"
	 width="220.732px" height="39.346px" viewBox="0 0 220.732 39.346" enable-background="new 0 0 220.732 39.346"
	 xml:space="preserve">
<g>
	<text transform="matrix(1 0 0 1 70.981 25.8618)"><tspan x="0" y="0" fill="#3D6E93" font-family="'Kefa-Regular'" font-size="29.3647">Vista</tspan><tspan x="67.504" y="0" fill="#F78064" font-family="'Kefa-Regular'" font-size="29.3647">travel</tspan></text>
	<text transform="matrix(1 0 0 1 160.8809 34.897)" fill="#222221" font-family="'Kefa-Regular'" font-size="8.3837">tour operador</text>
	<linearGradient id="SVGID_1_" gradientUnits="userSpaceOnUse" x1="6.0034" y1="9.7378" x2="62.8896" y2="9.7378">
		<stop  offset="0" style="stop-color:#C1D5E4"/>
		<stop  offset="0.0269" style="stop-color:#B9D1E4"/>
		<stop  offset="0.1081" style="stop-color:#A6C7E3"/>
		<stop  offset="0.1918" style="stop-color:#9BC1E2"/>
		<stop  offset="0.2809" style="stop-color:#97BFE2"/>
		<stop  offset="0.6685" style="stop-color:#69AFE4"/>
		<stop  offset="0.8876" style="stop-color:#69AFE4"/>
		<stop  offset="1" style="stop-color:#68B4E4"/>
	</linearGradient>
	<path fill="url(#SVGID_1_)" d="M51.414,6.14c-16.811,0.72-45.41-1.278-45.41-1.278s0,0,0.092,0.254
		c0.086,0.256,0.934,0.643,0.934,0.643c15.348,7.289,38.373,8.568,45.662,8.825c7.291,0.255,7.035-1.024,9.082-4.606
		C63.82,6.396,64.382,5.584,51.414,6.14z"/>
	<linearGradient id="SVGID_2_" gradientUnits="userSpaceOnUse" x1="20.5728" y1="22.0933" x2="58.605" y2="22.0933">
		<stop  offset="0" style="stop-color:#C1D5E4"/>
		<stop  offset="0.0269" style="stop-color:#B9D1E4"/>
		<stop  offset="0.1081" style="stop-color:#A6C7E3"/>
		<stop  offset="0.1918" style="stop-color:#9BC1E2"/>
		<stop  offset="0.2809" style="stop-color:#97BFE2"/>
		<stop  offset="0.6685" style="stop-color:#69AFE4"/>
		<stop  offset="0.8876" style="stop-color:#69AFE4"/>
		<stop  offset="1" style="stop-color:#68B4E4"/>
	</linearGradient>
	<path fill="url(#SVGID_2_)" d="M47.089,15.764c-10.494-0.396-26.475-3.719-26.475-3.719s-0.094,0.139,0,0.376
		c0.094,0.239,2.025,1.351,2.025,1.351c10.328,6.337,19.59,8.115,25.412,8.498c-3.443,6.68-5.641,9.734-5.641,9.734
		s0.094,0.139,0.354,0.139c0.256,0.002,1.996-1.393,1.996-1.393c7.857-5.648,13.1-12.878,13.695-13.887
		C59.175,15.656,57.583,16.162,47.089,15.764z"/>
	<linearGradient id="SVGID_3_" gradientUnits="userSpaceOnUse" x1="29.4727" y1="24.521" x2="44.6499" y2="24.521">
		<stop  offset="0" style="stop-color:#F7A94E"/>
		<stop  offset="0.0512" style="stop-color:#F7A14E"/>
		<stop  offset="0.1623" style="stop-color:#F7964E"/>
		<stop  offset="0.2809" style="stop-color:#F7924E"/>
		<stop  offset="0.6685" style="stop-color:#F78046"/>
		<stop  offset="0.8876" style="stop-color:#F78064"/>
		<stop  offset="1" style="stop-color:#D18064"/>
	</linearGradient>
	<path fill="url(#SVGID_3_)" d="M29.609,19.471c0,0,5.059,2.287,15.041,4.285c0,0-2.088,5.219-3.789,5.799
		c-1.107,0.379-8.377-6-9.584-7.195C28.765,19.871,29.609,19.471,29.609,19.471z"/>
</g>
</svg>
